<svg width="105" height="31" fill="none" xmlns="http://www.w3.org/2000/svg"><path d="M104.386 27.269c0 1.616-1.336 2.925-2.989 2.925H3.577c-1.653 0-2.994-1.31-2.994-2.925V3.943c0-1.616 1.341-2.93 2.993-2.93h97.821c1.653 0 2.989 1.314 2.989 2.93v23.326z" fill="#000"/><path d="M101.082 1.049c1.8 0 3.265 1.428 3.265 3.183v22.744c0 1.755-1.465 3.183-3.265 3.183H3.888c-1.8 0-3.265-1.428-3.265-3.183V4.232c0-1.755 1.465-3.183 3.265-3.183h97.194zm0-.607H3.888C1.75.442 0 2.148 0 4.232v22.744c0 2.083 1.75 3.79 3.888 3.79h97.194c2.137 0 3.888-1.707 3.888-3.79V4.232c0-2.084-1.751-3.79-3.888-3.79z" fill="#A6A6A6"/><path d="M23.426 15.44c-.022-2.444 2.052-3.632 2.147-3.688-1.175-1.67-2.996-1.898-3.636-1.916-1.53-.157-3.013.892-3.792.892-.795 0-1.994-.877-3.288-.851-1.664.025-3.22.964-4.074 2.423-1.762 2.974-.448 7.344 1.24 9.748.845 1.178 1.831 2.492 3.123 2.446 1.263-.05 1.735-.785 3.26-.785 1.51 0 1.954.785 3.271.756 1.356-.022 2.21-1.183 3.025-2.371.976-1.35 1.368-2.679 1.383-2.747-.032-.01-2.633-.979-2.659-3.907zM20.938 8.254c.68-.828 1.144-1.955 1.015-3.1-.983.043-2.213.664-2.922 1.474-.626.714-1.186 1.885-1.042 2.986 1.105.08 2.24-.544 2.949-1.36zM41.711 24.325h-1.765l-.968-2.964h-3.362l-.921 2.964h-1.72l3.332-10.09h2.057l3.347 10.09zm-3.024-4.207-.875-2.634c-.093-.27-.266-.903-.522-1.901h-.03c-.103.43-.267 1.063-.492 1.9l-.86 2.635h2.779zM50.277 20.598c0 1.237-.343 2.215-1.029 2.933-.614.64-1.377.958-2.287.958-.983 0-1.689-.344-2.119-1.032h-.031v3.832h-1.658v-7.844c0-.778-.02-1.576-.061-2.395h1.458l.092 1.153h.031c.553-.869 1.392-1.302 2.518-1.302.88 0 1.615.338 2.203 1.017.59.68.883 1.572.883 2.68zm-1.689.06c0-.709-.163-1.293-.491-1.752-.358-.48-.84-.719-1.443-.719-.41 0-.78.134-1.113.397-.333.265-.55.611-.652 1.04-.052.2-.077.364-.077.493v1.213c0 .53.166.976.499 1.34.333.365.765.547 1.297.547.624 0 1.11-.235 1.458-.703.348-.47.522-1.088.522-1.857zM58.86 20.598c0 1.237-.343 2.215-1.03 2.933-.614.64-1.376.958-2.287.958-.983 0-1.689-.344-2.118-1.032h-.031v3.832h-1.658v-7.844c0-.778-.02-1.576-.061-2.395h1.458l.092 1.153h.031c.552-.869 1.391-1.302 2.518-1.302.88 0 1.614.338 2.204 1.017.587.68.881 1.572.881 2.68zm-1.69.06c0-.709-.163-1.293-.492-1.752-.358-.48-.838-.719-1.442-.719-.41 0-.78.134-1.113.397-.333.265-.55.611-.652 1.04-.05.2-.077.364-.077.493v1.213c0 .53.166.976.498 1.34.332.364.765.547 1.298.547.625 0 1.11-.235 1.458-.703.348-.47.523-1.088.523-1.857zM68.455 21.496c0 .858-.306 1.556-.92 2.095-.674.59-1.612.883-2.818.883-1.114 0-2.006-.209-2.682-.628l.384-1.347c.728.429 1.527.644 2.397.644.624 0 1.11-.138 1.46-.412.347-.275.52-.643.52-1.103 0-.409-.143-.754-.43-1.034-.285-.28-.762-.54-1.427-.78-1.812-.659-2.717-1.624-2.717-2.893 0-.83.317-1.51.952-2.038.633-.53 1.478-.795 2.533-.795.942 0 1.724.16 2.349.48l-.415 1.317c-.583-.31-1.242-.464-1.98-.464-.583 0-1.039.14-1.365.42-.277.249-.415.553-.415.913 0 .398.158.728.475.987.276.24.778.5 1.506.78.89.349 1.544.757 1.964 1.226.42.467.629 1.051.629 1.749zM73.936 18.263h-1.828v3.532c0 .898.322 1.347.968 1.347.296 0 .542-.025.736-.075l.046 1.227c-.327.12-.757.18-1.29.18-.654 0-1.166-.195-1.535-.584-.368-.39-.553-1.044-.553-1.962v-3.667h-1.088v-1.213h1.088v-1.332l1.628-.479v1.811h1.828v1.215zM82.18 20.628c0 1.118-.328 2.036-.983 2.754-.686.739-1.597 1.107-2.733 1.107-1.095 0-1.967-.354-2.617-1.062-.65-.708-.975-1.602-.975-2.679 0-1.127.334-2.05 1.005-2.769.67-.718 1.573-1.078 2.71-1.078 1.094 0 1.975.354 2.64 1.063.636.688.953 1.576.953 2.664zm-1.72.052c0-.671-.147-1.247-.444-1.726-.348-.581-.845-.87-1.489-.87-.666 0-1.172.29-1.52.87-.298.48-.445 1.065-.445 1.756 0 .671.147 1.246.445 1.726.359.58.86.87 1.506.87.632 0 1.13-.296 1.488-.886.305-.489.46-1.07.46-1.74zM87.568 18.471a2.948 2.948 0 0 0-.522-.044c-.584 0-1.035.214-1.352.644-.276.38-.414.858-.414 1.437v3.817h-1.657l.015-4.984c0-.838-.02-1.602-.062-2.29h1.444l.06 1.392h.047a2.49 2.49 0 0 1 .829-1.153c.369-.26.768-.39 1.198-.39.153 0 .291.011.414.03v1.541zM94.983 20.343c0 .29-.02.534-.061.733h-4.973c.02.719.26 1.269.721 1.648.42.339.961.508 1.627.508.736 0 1.408-.114 2.012-.344l.26 1.122c-.706.3-1.54.45-2.502.45-1.156 0-2.065-.332-2.726-.996-.659-.663-.99-1.554-.99-2.671 0-1.097.308-2.01.923-2.74.644-.777 1.514-1.166 2.608-1.166 1.076 0 1.89.389 2.443 1.167.438.618.657 1.382.657 2.29zm-1.581-.419c.01-.48-.097-.893-.322-1.243-.287-.45-.728-.674-1.321-.674-.542 0-.983.22-1.32.66-.276.349-.44.768-.49 1.256h3.453v.001zM36.452 9.03h-1.405l-.008-.692h1.228c.207 0 .382-.03.526-.091a.729.729 0 0 0 .334-.27.779.779 0 0 0 .113-.427.857.857 0 0 0-.106-.451.607.607 0 0 0-.325-.254 1.623 1.623 0 0 0-.554-.08h-.92v4.759h-.951V6.008h1.871c.303 0 .574.029.811.087.24.058.443.149.61.273.17.12.297.275.383.462.088.187.132.409.132.667 0 .227-.054.435-.163.625a1.24 1.24 0 0 1-.48.458c-.213.119-.477.19-.793.212l-.303.239zm-.041 2.494h-1.663l.428-.754h1.235c.214 0 .394-.036.538-.106a.742.742 0 0 0 .322-.3.897.897 0 0 0 .11-.45c0-.18-.032-.335-.095-.466a.653.653 0 0 0-.3-.307 1.127 1.127 0 0 0-.534-.11h-1.068l.008-.693h1.39l.216.261c.303.01.552.077.746.2.197.125.344.285.44.482.096.197.144.41.144.636 0 .351-.077.646-.231.883-.152.237-.37.418-.656.542-.285.121-.629.182-1.03.182zm5.095-.822V8.747a.839.839 0 0 0-.08-.379.557.557 0 0 0-.242-.246.83.83 0 0 0-.401-.087.91.91 0 0 0-.387.075.624.624 0 0 0-.254.205.494.494 0 0 0-.09.292h-.91c0-.162.04-.319.118-.47.078-.152.192-.287.34-.406.15-.118.328-.212.535-.28.207-.068.44-.102.697-.102.308 0 .58.052.818.155.24.104.428.26.565.47.138.207.208.467.208.78v1.823c0 .187.012.354.038.503.028.147.067.274.117.383v.06h-.936a1.62 1.62 0 0 1-.102-.374 3.066 3.066 0 0 1-.034-.447zm.133-1.671.007.564h-.655c-.17 0-.318.017-.447.05a.919.919 0 0 0-.322.136.594.594 0 0 0-.258.511c0 .11.026.209.076.3.05.088.124.158.22.208.098.05.217.076.356.076a1.005 1.005 0 0 0 .822-.398.619.619 0 0 0 .129-.322l.295.405c-.03.104-.082.215-.155.334-.073.119-.17.232-.288.34a1.433 1.433 0 0 1-.981.364c-.268 0-.507-.053-.716-.159a1.273 1.273 0 0 1-.493-.435 1.13 1.13 0 0 1-.178-.625c0-.218.04-.41.121-.576.084-.17.205-.31.364-.425.162-.113.359-.2.591-.257.232-.06.498-.091.796-.091h.716zm2.716-1.606v4.099h-.917v-4.1h.917zm-.977-1.076c0-.14.045-.254.136-.345a.522.522 0 0 1 .386-.14c.162 0 .29.047.383.14a.46.46 0 0 1 .14.345c0 .136-.047.25-.14.34a.525.525 0 0 1-.383.137.53.53 0 0 1-.386-.136.462.462 0 0 1-.136-.341zm2.674 1.076.78 1.36.796-1.36h1.004L47.39 9.436l1.291 2.088h-1.004l-.833-1.417-.834 1.417h-1.007l1.288-2.088-1.239-2.011h1zm5.516 3.277V8.747a.838.838 0 0 0-.08-.379.557.557 0 0 0-.242-.246.83.83 0 0 0-.402-.087.91.91 0 0 0-.386.075.624.624 0 0 0-.254.205.494.494 0 0 0-.09.292h-.91c0-.162.04-.319.118-.47.078-.152.191-.287.34-.406.15-.118.328-.212.535-.28.207-.068.44-.102.697-.102.308 0 .58.052.818.155.24.104.428.26.564.47.14.207.209.467.209.78v1.823c0 .187.013.354.038.503.028.147.067.274.117.383v.06h-.935a1.61 1.61 0 0 1-.103-.374 3.066 3.066 0 0 1-.034-.447zm.133-1.671.007.564h-.655c-.17 0-.318.017-.447.05a.918.918 0 0 0-.322.136.594.594 0 0 0-.258.511c0 .11.025.209.076.3a.53.53 0 0 0 .22.208c.098.05.217.076.356.076a1.005 1.005 0 0 0 .822-.398.619.619 0 0 0 .129-.322l.295.405c-.03.104-.082.215-.155.334-.073.119-.17.232-.288.34a1.433 1.433 0 0 1-.981.364c-.268 0-.507-.053-.716-.159a1.273 1.273 0 0 1-.493-.435 1.13 1.13 0 0 1-.178-.625c0-.218.04-.41.121-.576.084-.17.205-.31.364-.425.162-.113.359-.2.591-.257.233-.06.498-.091.796-.091h.716zm2.655-.826v3.319h-.913v-4.1h.872l.041.781zm1.254-.807-.007.849a2.374 2.374 0 0 0-.371-.03 1.15 1.15 0 0 0-.413.068.778.778 0 0 0-.482.485 1.324 1.324 0 0 0-.075.39l-.209.015c0-.258.026-.496.076-.716.05-.22.126-.413.227-.58.104-.166.233-.297.387-.39.156-.093.337-.14.541-.14a1.131 1.131 0 0 1 .326.05zm3.41.902v3.224h-.913v-4.1h.86l.053.876zm-.163 1.023-.295-.004c.002-.29.042-.557.12-.8.081-.242.193-.45.334-.625a1.47 1.47 0 0 1 .515-.401c.2-.096.422-.144.667-.144.197 0 .375.028.534.083.162.053.3.14.413.262.116.12.205.279.265.473.061.192.091.428.091.709v2.648h-.916V8.872c0-.197-.03-.353-.088-.466a.488.488 0 0 0-.246-.246.924.924 0 0 0-.398-.076.883.883 0 0 0-.735.367 1.3 1.3 0 0 0-.193.394 1.626 1.626 0 0 0-.068.478zm5.887 1.379V8.747a.839.839 0 0 0-.08-.379.557.557 0 0 0-.242-.246.829.829 0 0 0-.401-.087.91.91 0 0 0-.387.075.624.624 0 0 0-.254.205.494.494 0 0 0-.09.292h-.91c0-.162.04-.319.118-.47.078-.152.192-.287.34-.406.15-.118.328-.212.535-.28.207-.068.44-.102.697-.102.308 0 .58.052.818.155.24.104.428.26.565.47.138.207.208.467.208.78v1.823c0 .187.013.354.038.503.028.147.067.274.117.383v.06h-.936a1.62 1.62 0 0 1-.102-.374 3.066 3.066 0 0 1-.034-.447zm.133-1.671.007.564h-.655c-.17 0-.318.017-.447.05a.917.917 0 0 0-.322.136.592.592 0 0 0-.258.511c0 .11.026.209.076.3a.53.53 0 0 0 .22.208c.098.05.217.076.356.076a1.005 1.005 0 0 0 .822-.398.62.62 0 0 0 .129-.322l.295.405c-.03.104-.082.215-.155.334-.073.119-.17.232-.288.34a1.432 1.432 0 0 1-.981.364c-.268 0-.507-.053-.716-.159a1.273 1.273 0 0 1-.493-.435 1.13 1.13 0 0 1-.178-.625c0-.218.04-.41.121-.576.084-.17.205-.31.364-.425.162-.113.359-.2.591-.257.232-.06.498-.091.796-.091h.716z" fill="#fff"/></svg>