<svg width="105" height="32" fill="none" xmlns="http://www.w3.org/2000/svg"><path d="M101.112 31.09H3.918C1.781 31.09.03 29.383.03 27.3V4.555c0-2.084 1.75-3.79 3.888-3.79h97.194c2.138 0 3.888 1.706 3.888 3.79v22.743c0 2.084-1.75 3.79-3.888 3.79z" fill="#000"/><path d="M101.112 1.373c1.8 0 3.265 1.428 3.265 3.183v22.743c0 1.755-1.465 3.183-3.265 3.183H3.918c-1.8 0-3.265-1.428-3.265-3.183V4.556c0-1.755 1.465-3.183 3.265-3.183h97.194zm0-.608H3.918C1.781.765.03 2.472.03 4.555V27.3c0 2.084 1.75 3.79 3.888 3.79h97.194c2.138 0 3.888-1.706 3.888-3.79V4.556c0-2.084-1.75-3.79-3.888-3.79z" fill="#A6A6A6"/><path d="M8.144 6.48c-.229.234-.36.597-.36 1.067v16.765c0 .47.131.833.36 1.066l.056.052 9.636-9.392v-.221L8.2 6.426l-.056.055z" fill="url(#a)"/><path d="m21.044 19.17-3.208-3.132v-.221l3.212-3.132.072.04 3.804 2.11c1.086.6 1.086 1.585 0 2.188L21.12 19.13l-.076.04z" fill="url(#b)"/><path d="m21.12 19.13-3.284-3.202-9.692 9.45c.36.37.948.415 1.617.045L21.12 19.13z" fill="url(#c)"/><path d="M21.12 12.725 9.76 6.432c-.668-.366-1.256-.321-1.616.048l9.692 9.447 3.284-3.202z" fill="url(#d)"/><path d="M53.008 17.256c-1.826 0-3.318 1.355-3.318 3.225 0 1.855 1.492 3.224 3.318 3.224 1.83 0 3.322-1.37 3.322-3.224 0-1.87-1.492-3.225-3.322-3.225zm0 5.18c-1.002 0-1.864-.807-1.864-1.955 0-1.163.862-1.955 1.864-1.955 1.002 0 1.868.792 1.868 1.955 0 1.148-.866 1.954-1.868 1.954zm-7.24-5.18c-1.83 0-3.318 1.355-3.318 3.225 0 1.855 1.488 3.224 3.318 3.224s3.319-1.37 3.319-3.224c0-1.87-1.49-3.225-3.319-3.225zm0 5.18c-1.003 0-1.868-.807-1.868-1.955 0-1.163.865-1.955 1.868-1.955 1.002 0 1.864.792 1.864 1.955 0 1.148-.862 1.954-1.864 1.954zm-8.615-4.191v1.37h3.356c-.098.766-.36 1.329-.763 1.72-.49.475-1.253 1-2.593 1-2.065 0-3.683-1.625-3.683-3.638 0-2.014 1.618-3.64 3.683-3.64 1.117 0 1.93.426 2.529.978l.99-.966c-.838-.78-1.954-1.38-3.519-1.38-2.832 0-5.213 2.246-5.213 5.008 0 2.761 2.38 5.008 5.213 5.008 1.53 0 2.68-.489 3.584-1.406.927-.903 1.215-2.173 1.215-3.199 0-.318-.027-.61-.075-.855h-4.724zm35.229 1.062c-.273-.721-1.116-2.05-2.832-2.05-1.701 0-3.117 1.306-3.117 3.224 0 1.806 1.401 3.224 3.28 3.224 1.52 0 2.396-.903 2.757-1.429l-1.128-.732c-.376.536-.888.891-1.629.891-.736 0-1.263-.329-1.602-.977l4.424-1.784-.153-.367zm-4.51 1.074A1.79 1.79 0 0 1 69.6 18.5c.578 0 1.067.281 1.23.684l-2.957 1.196zm-3.595 3.128h1.454v-9.477h-1.454v9.477zm-2.381-5.534h-.049c-.327-.378-.95-.719-1.739-.719-1.656 0-3.17 1.418-3.17 3.236 0 1.807 1.514 3.213 3.17 3.213.79 0 1.413-.344 1.74-.732h.048v.462c0 1.233-.676 1.895-1.765 1.895-.889 0-1.44-.625-1.667-1.151l-1.265.514a3.154 3.154 0 0 0 2.932 1.907c1.704 0 3.143-.978 3.143-3.357v-5.79h-1.378v.522zm-1.663 4.46c-1.002 0-1.841-.818-1.841-1.943 0-1.137.839-1.966 1.84-1.966.988 0 1.767.83 1.767 1.966 0 1.125-.779 1.943-1.766 1.943zm18.956-8.403h-3.477v9.477h1.45v-3.59h2.027c1.611 0 3.19-1.137 3.19-2.944 0-1.806-1.583-2.943-3.19-2.943zm.038 4.568h-2.065v-3.25h2.065c1.083 0 1.701.877 1.701 1.625 0 .733-.618 1.625-1.7 1.625zm8.965-1.362c-1.048 0-2.138.451-2.586 1.451l1.287.526c.277-.526.786-.696 1.325-.696.752 0 1.515.44 1.527 1.218v.1c-.263-.148-.824-.367-1.516-.367-1.385 0-2.798.744-2.798 2.132 0 1.27 1.136 2.088 2.412 2.088.975 0 1.514-.43 1.852-.929h.05v.733h1.4v-3.635c0-1.68-1.286-2.62-2.953-2.62zm-.175 5.193c-.475 0-1.136-.229-1.136-.802 0-.734.825-1.015 1.538-1.015.639 0 .938.137 1.326.318-.114.878-.889 1.5-1.728 1.5zm8.231-4.985-1.667 4.108h-.05l-1.723-4.108h-1.564l2.59 5.74-1.478 3.195h1.516l3.99-8.935h-1.614zm-13.072 6.063h1.454v-9.477h-1.454v9.477zM33.933 11.43h-.996l.007-.637h.99c.287 0 .529-.063.723-.189a1.15 1.15 0 0 0 .442-.54c.1-.236.15-.515.15-.84v-.253c0-.252-.028-.475-.086-.67a1.31 1.31 0 0 0-.25-.49 1.045 1.045 0 0 0-.403-.3 1.37 1.37 0 0 0-.548-.103h-1.044v-.64h1.044c.31 0 .592.052.849.157.256.102.477.25.663.445.188.194.332.427.432.698.1.271.15.574.15.91v.246c0 .335-.05.638-.15.91-.1.27-.245.503-.432.698a1.94 1.94 0 0 1-.673.445 2.336 2.336 0 0 1-.868.154zm-.55-4.662v4.663h-.805V6.768h.804zm4.339 0v4.663h-.804V6.768h.804zm3.452 3.462a.685.685 0 0 0-.045-.257.5.5 0 0 0-.15-.204 1.242 1.242 0 0 0-.308-.18c-.13-.06-.296-.12-.5-.182a5.533 5.533 0 0 1-.614-.228 2.336 2.336 0 0 1-.487-.294 1.26 1.26 0 0 1-.323-.388 1.085 1.085 0 0 1-.116-.51c0-.19.04-.362.119-.518a1.21 1.21 0 0 1 .343-.403c.149-.116.325-.204.528-.266.203-.064.427-.096.672-.096.346 0 .644.064.894.192.252.128.445.3.58.515.136.216.205.454.205.715h-.798a.814.814 0 0 0-.1-.407.673.673 0 0 0-.294-.282 1.064 1.064 0 0 0-.496-.102c-.19 0-.348.028-.474.086a.632.632 0 0 0-.282.234.611.611 0 0 0-.093.333c0 .087.02.168.061.24a.67.67 0 0 0 .186.199c.083.06.188.116.314.17.126.053.274.104.445.153.258.077.483.162.675.256.193.092.353.197.48.314a1.16 1.16 0 0 1 .385.903c0 .197-.04.374-.118.532-.08.156-.193.29-.34.4-.145.11-.32.194-.525.253-.203.058-.43.087-.679.087-.224 0-.445-.03-.663-.09a1.953 1.953 0 0 1-.59-.272 1.407 1.407 0 0 1-.422-.461 1.303 1.303 0 0 1-.157-.65h.804c0 .151.026.28.077.387a.715.715 0 0 0 .22.263.996.996 0 0 0 .328.147c.126.032.26.048.403.048.188 0 .345-.027.47-.08a.621.621 0 0 0 .29-.224.587.587 0 0 0 .095-.333zm3.29-.538h-1.215v-.638h1.214c.212 0 .382-.034.513-.102a.639.639 0 0 0 .285-.282.906.906 0 0 0 .092-.416.937.937 0 0 0-.092-.413.708.708 0 0 0-.285-.314.979.979 0 0 0-.513-.119h-.967v4.023h-.804V6.768h1.771c.361 0 .667.064.92.192.253.126.447.3.579.525.132.222.198.476.198.762 0 .301-.066.56-.198.775a1.278 1.278 0 0 1-.58.497c-.252.115-.558.173-.919.173zm6.135-.72v.255c0 .353-.046.669-.137.948-.092.28-.224.518-.394.714a1.693 1.693 0 0 1-.609.452c-.237.103-.5.154-.788.154-.286 0-.547-.051-.784-.154a1.762 1.762 0 0 1-.612-.452 2.099 2.099 0 0 1-.404-.714 2.97 2.97 0 0 1-.14-.948v-.256c0-.352.047-.667.14-.945.094-.28.227-.517.398-.714.173-.198.377-.349.611-.451.237-.105.499-.157.785-.157.288 0 .55.052.788.157.237.102.44.253.611.451.171.197.303.435.394.714.094.278.141.593.141.945zm-.803.255v-.262c0-.26-.026-.49-.077-.689-.05-.2-.123-.368-.221-.503a.924.924 0 0 0-.356-.307c-.14-.07-.3-.106-.477-.106s-.335.035-.474.106a.955.955 0 0 0-.355.307c-.097.135-.17.302-.221.503a2.771 2.771 0 0 0-.077.689v.262c0 .26.025.491.077.692.05.2.125.37.224.51.1.136.22.24.358.31.14.068.297.102.474.102.18 0 .339-.034.477-.102a.958.958 0 0 0 .353-.31c.096-.14.169-.31.218-.51.05-.2.076-.431.076-.692zm5.306-2.46v4.664h-.804l-2.091-3.34v3.34h-.804V6.768h.804l2.098 3.346V6.768h.797zm1.816 0v4.664h-.804V6.768h.804zm-.791-.31.624-.964h.872l-.872.964h-.624zm3.388 4.122 1.227-3.811h.887l-1.672 4.663h-.599l.157-.852zm-1.133-3.811 1.217 3.81.166.853h-.602l-1.665-4.663h.884zm6.821 4.025v.638h-2.476v-.638h2.476zm-2.248-4.025v4.663h-.804V6.768h.804zm1.924 1.947v.628h-2.152v-.628h2.152zm.308-1.947v.64h-2.46v-.64h2.46zm3.593 4.025v.638h-2.34v-.638h2.34zm-2.117-4.025v4.663h-.803V6.768h.803zm8.07 0v4.663h-.803l-2.091-3.34v3.34h-.804V6.768h.804l2.097 3.346V6.768h.798zM79.41 8.97v.256c0 .353-.046.669-.138.948-.092.28-.223.518-.394.714a1.692 1.692 0 0 1-.609.452c-.237.103-.5.154-.787.154-.287 0-.548-.051-.785-.154a1.76 1.76 0 0 1-.612-.452 2.097 2.097 0 0 1-.403-.714 2.968 2.968 0 0 1-.141-.948v-.256c0-.352.047-.667.14-.945.095-.28.227-.517.398-.714a1.71 1.71 0 0 1 .612-.451c.237-.105.498-.157.784-.157.288 0 .551.052.788.157.237.102.44.253.612.451.17.197.302.435.394.714.094.278.14.593.14.945zm-.804.256v-.262c0-.26-.026-.49-.077-.689-.05-.2-.123-.368-.221-.503a.924.924 0 0 0-.356-.307c-.14-.07-.3-.106-.477-.106s-.335.035-.474.106a.956.956 0 0 0-.355.307c-.096.135-.17.302-.221.503a2.766 2.766 0 0 0-.077.689v.262c0 .26.026.491.077.692.051.2.126.37.224.51.1.136.22.24.359.31.138.068.296.102.474.102.179 0 .338-.034.477-.102a.958.958 0 0 0 .352-.31c.096-.14.169-.31.218-.51.051-.2.077-.431.077-.692z" fill="#fff"/><defs><linearGradient id="a" x1="16.98" y1="24.487" x2="4.262" y2="11.442" gradientUnits="userSpaceOnUse"><stop stop-color="#00A0FF"/><stop offset=".007" stop-color="#00A1FF"/><stop offset=".26" stop-color="#00BEFF"/><stop offset=".512" stop-color="#00D2FF"/><stop offset=".76" stop-color="#00DFFF"/><stop offset="1" stop-color="#00E3FF"/></linearGradient><linearGradient id="b" x1="26.338" y1="15.927" x2="7.524" y2="15.927" gradientUnits="userSpaceOnUse"><stop stop-color="#FFE000"/><stop offset=".409" stop-color="#FFBD00"/><stop offset=".775" stop-color="orange"/><stop offset="1" stop-color="#FF9C00"/></linearGradient><linearGradient id="c" x1="19.334" y1="14.187" x2="2.086" y2="-3.503" gradientUnits="userSpaceOnUse"><stop stop-color="#FF3A44"/><stop offset="1" stop-color="#C31162"/></linearGradient><linearGradient id="d" x1="5.704" y1="30.956" x2="13.406" y2="23.057" gradientUnits="userSpaceOnUse"><stop stop-color="#32A071"/><stop offset=".069" stop-color="#2DA771"/><stop offset=".476" stop-color="#15CF74"/><stop offset=".801" stop-color="#06E775"/><stop offset="1" stop-color="#00F076"/></linearGradient></defs></svg>