<svg width="22" height="22" fill="none" xmlns="http://www.w3.org/2000/svg"><g clip-path="url(#a)" fill="#454545" stroke="#454545" stroke-width=".6"><path d="M16.164 16.204a2.848 2.848 0 0 1-2.028-.84l-2.94-2.94a.556.556 0 0 0-.77 0l-2.927 2.929a2.852 2.852 0 0 1-2.03.84h-.351l3.72 3.719a2.962 2.962 0 0 0 4.195 0l3.709-3.708h-.578zm-3.72 3.122a2.137 2.137 0 0 1-3.02 0l-2.57-2.57a3.7 3.7 0 0 0 1.232-.815l2.726-2.728 2.738 2.738c.392.393.868.693 1.393.876l-2.498 2.499zM13.033 1.975a2.967 2.967 0 0 0-4.195 0l-3.72 3.719h.352a2.85 2.85 0 0 1 2.029.84l2.927 2.929a.545.545 0 0 0 .77 0l2.94-2.94a2.852 2.852 0 0 1 2.028-.84h.578l-3.71-3.708zm.517 3.96-2.738 2.738-2.727-2.727a3.692 3.692 0 0 0-1.231-.816l2.57-2.57a2.138 2.138 0 0 1 3.02 0l2.5 2.5a3.667 3.667 0 0 0-1.394.876z"/><path d="m19.828 8.848-2.226-2.226h-1.439a2.021 2.021 0 0 0-1.418.587l-2.94 2.94a1.408 1.408 0 0 1-1.987 0l-2.93-2.93a2.02 2.02 0 0 0-1.418-.587H4.257L2.042 8.847a2.963 2.963 0 0 0 0 4.194l2.215 2.215H5.47a2.02 2.02 0 0 0 1.419-.588l2.929-2.927a1.44 1.44 0 0 1 1.988 0l2.939 2.94c.376.375.886.587 1.418.588h1.439l2.226-2.226a2.96 2.96 0 0 0 0-4.195zm-10.6 2.306L6.3 14.084c-.222.219-.52.343-.831.344h-.871l-1.972-1.973a2.14 2.14 0 0 1 0-3.02L4.598 7.46h.87c.312.001.61.125.833.345l2.928 2.93c.076.075.157.145.243.21a2.343 2.343 0 0 0-.241.208h-.003zm10.01 1.3-1.982 1.983H16.16c-.311 0-.61-.124-.832-.345l-2.938-2.938a2.17 2.17 0 0 0-.242-.208c.085-.065.166-.135.243-.21l2.939-2.94c.22-.22.52-.344.832-.345h1.093l1.983 1.984a2.137 2.137 0 0 1 0 3.021v-.002z"/></g><defs><clipPath id="a"><path fill="#fff" transform="translate(.172 .106)" d="M0 0h21v21H0z"/></clipPath></defs></svg>