<svg width="94" height="95" fill="none" xmlns="http://www.w3.org/2000/svg"><g clip-path="url(#a)"><path d="M94 .441H0v94h94v-94z" fill="#fff"/><path d="M25.793 6.441H6v19.794h19.793V6.44z" fill="#000"/><path d="M22.965 9.269H8.827v14.138h14.138V9.269z" fill="#fff"/><path d="M20.138 12.096h-8.483v8.483h8.483v-8.483zM88 6.441H68.207v19.794H88V6.44z" fill="#000"/><path d="M85.172 9.269H71.034v14.138h14.138V9.269z" fill="#fff"/><path d="M82.345 12.096h-8.483v8.483h8.483v-8.483zM25.793 68.648H6v19.793h19.793V68.648z" fill="#000"/><path d="M22.965 71.476H8.827v14.138h14.138V71.476z" fill="#fff"/><path d="M20.138 74.304h-8.483v8.483h8.483v-8.483zM76.69 62.993H62.552v14.138H76.69V62.993z" fill="#000"/><path d="M73.862 65.82h-8.483v8.483h8.483v-8.482z" fill="#fff"/><path d="M71.035 68.648h-2.828v2.828h2.828v-2.828zM37.103 6.441h-2.828V9.27h2.828V6.441zM42.758 6.441h-2.827V9.27h2.827V6.441zM54.069 6.441H51.24V9.27h2.828V6.441zM62.552 6.441h-2.827V9.27h2.827V6.441z" fill="#000"/><path d="M65.38 6.441h-2.828V9.27h2.827V6.441zM31.449 9.269H28.62v2.828h2.828V9.269zM37.103 9.269h-2.828v2.828h2.828V9.269zM48.413 9.269h-2.827v2.828h2.828V9.269z" fill="#000"/><path d="M51.242 9.269h-2.828v2.828h2.828V9.269z" fill="#000"/><path d="M54.069 9.269H51.24v2.828h2.828V9.269z" fill="#000"/><path d="M56.897 9.269h-2.828v2.828h2.828V9.269zM59.724 9.269h-2.827v2.828h2.827V9.269zM42.758 12.096h-2.827v2.828h2.827v-2.828z" fill="#000"/><path d="M54.069 12.096H51.24v2.828h2.828v-2.828zM59.724 12.096h-2.827v2.828h2.827v-2.828zM62.552 12.096h-2.827v2.828h2.827v-2.828zM31.449 14.924H28.62v2.828h2.828v-2.828z" fill="#000"/><path d="M34.276 14.924h-2.828v2.828h2.828v-2.828z" fill="#000"/><path d="M37.103 14.924h-2.828v2.828h2.828v-2.828zM42.758 14.924h-2.827v2.828h2.827v-2.828zM45.586 14.924H42.76v2.828h2.827v-2.828z" fill="#000"/><path d="M48.413 14.924h-2.827v2.828h2.828v-2.828zM56.897 14.924h-2.828v2.828h2.828v-2.828zM59.724 14.924h-2.827v2.828h2.827v-2.828zM34.276 17.752h-2.828v2.827h2.828v-2.827zM45.586 17.752H42.76v2.827h2.827v-2.827zM56.897 17.752h-2.828v2.827h2.828v-2.827zM59.724 17.752h-2.827v2.827h2.827v-2.827zM62.552 17.752h-2.827v2.827h2.827v-2.827z" fill="#000"/><path d="M65.38 17.752h-2.828v2.827h2.827v-2.827zM31.449 20.58H28.62v2.827h2.828v-2.828z" fill="#000"/><path d="M34.276 20.58h-2.828v2.827h2.828v-2.828zM39.931 20.58h-2.828v2.827h2.828v-2.828zM42.758 20.58h-2.827v2.827h2.827v-2.828zM45.586 20.58H42.76v2.827h2.827v-2.828z" fill="#000"/><path d="M48.413 20.58h-2.827v2.827h2.828v-2.828z" fill="#000"/><path d="M51.242 20.58h-2.828v2.827h2.828v-2.828z" fill="#000"/><path d="M54.069 20.58H51.24v2.827h2.828v-2.828z" fill="#000"/><path d="M56.897 20.58h-2.828v2.827h2.828v-2.828zM31.449 23.407H28.62v2.828h2.828v-2.828zM37.103 23.407h-2.828v2.828h2.828v-2.828zM42.758 23.407h-2.827v2.828h2.827v-2.828zM48.413 23.407h-2.827v2.828h2.828v-2.828zM54.069 23.407H51.24v2.828h2.828v-2.828zM59.724 23.407h-2.827v2.828h2.827v-2.828zM65.38 23.407h-2.828v2.828h2.827v-2.828zM34.276 26.235h-2.828v2.827h2.828v-2.827z" fill="#000"/><path d="M37.103 26.235h-2.828v2.827h2.828v-2.827z" fill="#000"/><path d="M39.931 26.235h-2.828v2.827h2.828v-2.827zM48.413 26.235h-2.827v2.827h2.828v-2.827z" fill="#000"/><path d="M51.242 26.235h-2.828v2.827h2.828v-2.827z" fill="#000"/><path d="M54.069 26.235H51.24v2.827h2.828v-2.827zM62.552 26.235h-2.827v2.827h2.827v-2.827z" fill="#000"/><path d="M65.38 26.235h-2.828v2.827h2.827v-2.827zM8.828 29.062H6v2.828h2.828v-2.828z" fill="#000"/><path d="M11.655 29.062H8.827v2.828h2.828v-2.828zM14.483 29.062h-2.828v2.828h2.828v-2.828z" fill="#000"/><path d="M17.31 29.062h-2.828v2.828h2.828v-2.828zM20.138 29.062H17.31v2.828h2.828v-2.828zM25.793 29.062h-2.827v2.828h2.827v-2.828zM28.62 29.062h-2.827v2.828h2.828v-2.828z" fill="#000"/><path d="M31.449 29.062H28.62v2.828h2.828v-2.828z" fill="#000"/><path d="M34.276 29.062h-2.828v2.828h2.828v-2.828zM39.931 29.062h-2.828v2.828h2.828v-2.828zM42.758 29.062h-2.827v2.828h2.827v-2.828zM45.586 29.062H42.76v2.828h2.827v-2.828z" fill="#000"/><path d="M48.413 29.062h-2.827v2.828h2.828v-2.828z" fill="#000"/><path d="M51.242 29.062h-2.828v2.828h2.828v-2.828zM56.897 29.062h-2.828v2.828h2.828v-2.828zM62.552 29.062h-2.827v2.828h2.827v-2.828zM68.207 29.062h-2.828v2.828h2.828v-2.828zM73.862 29.062h-2.828v2.828h2.828v-2.828zM79.517 29.062h-2.828v2.828h2.828v-2.828zM85.172 29.062h-2.827v2.828h2.827v-2.828zM11.655 31.89H8.827v2.827h2.828V31.89zM14.483 31.89h-2.828v2.827h2.828V31.89zM22.965 31.89h-2.827v2.827h2.827V31.89zM31.449 31.89H28.62v2.827h2.828V31.89zM37.103 31.89h-2.828v2.827h2.828V31.89zM42.758 31.89h-2.827v2.827h2.827V31.89zM48.413 31.89h-2.827v2.827h2.828V31.89zM54.069 31.89H51.24v2.827h2.828V31.89z" fill="#000"/><path d="M56.897 31.89h-2.828v2.827h2.828V31.89zM59.724 31.89h-2.827v2.827h2.827V31.89zM62.552 31.89h-2.827v2.827h2.827V31.89zM71.035 31.89h-2.828v2.827h2.828V31.89z" fill="#000"/><path d="M73.862 31.89h-2.828v2.827h2.828V31.89zM76.69 31.89h-2.828v2.827h2.828V31.89zM88 31.89h-2.827v2.827H88V31.89zM14.483 34.717h-2.828v2.828h2.828v-2.828z" fill="#000"/><path d="M17.31 34.717h-2.828v2.828h2.828v-2.828zM20.138 34.717H17.31v2.828h2.828v-2.828zM25.793 34.717h-2.827v2.828h2.827v-2.828zM28.62 34.717h-2.827v2.828h2.828v-2.828zM37.103 34.717h-2.828v2.828h2.828v-2.828zM45.586 34.717H42.76v2.828h2.827v-2.828z" fill="#000"/><path d="M48.413 34.717h-2.827v2.828h2.828v-2.828z" fill="#000"/><path d="M51.242 34.717h-2.828v2.828h2.828v-2.828z" fill="#000"/><path d="M54.069 34.717H51.24v2.828h2.828v-2.828zM65.38 34.717h-2.828v2.828h2.827v-2.828z" fill="#000"/><path d="M68.207 34.717h-2.828v2.828h2.828v-2.828zM14.483 37.545h-2.828v2.828h2.828v-2.828z" fill="#000"/><path d="M17.31 37.545h-2.828v2.828h2.828v-2.828zM20.138 37.545H17.31v2.828h2.828v-2.828zM28.62 37.545h-2.827v2.828h2.828v-2.828zM39.931 37.545h-2.828v2.828h2.828v-2.828zM48.413 37.545h-2.827v2.828h2.828v-2.828zM54.069 37.545H51.24v2.828h2.828v-2.828zM59.724 37.545h-2.827v2.828h2.827v-2.828zM65.38 37.545h-2.828v2.828h2.827v-2.828z" fill="#000"/><path d="M68.207 37.545h-2.828v2.828h2.828v-2.828zM73.862 37.545h-2.828v2.828h2.828v-2.828zM79.517 37.545h-2.828v2.828h2.828v-2.828zM85.172 37.545h-2.827v2.828h2.827v-2.828zM8.828 40.373H6V43.2h2.828v-2.827zM17.31 40.373h-2.828V43.2h2.828v-2.827zM20.138 40.373H17.31V43.2h2.828v-2.827z" fill="#000"/><path d="M22.965 40.373h-2.827V43.2h2.827v-2.827zM25.793 40.373h-2.827V43.2h2.827v-2.827zM28.62 40.373h-2.827V43.2h2.828v-2.827zM34.276 40.373h-2.828V43.2h2.828v-2.827z" fill="#000"/><path d="M37.103 40.373h-2.828V43.2h2.828v-2.827z" fill="#000"/><path d="M39.931 40.373h-2.828V43.2h2.828v-2.827zM42.758 40.373h-2.827V43.2h2.827v-2.827zM45.586 40.373H42.76V43.2h2.827v-2.827z" fill="#000"/><path d="M48.413 40.373h-2.827V43.2h2.828v-2.827z" fill="#000"/><path d="M51.242 40.373h-2.828V43.2h2.828v-2.827zM56.897 40.373h-2.828V43.2h2.828v-2.827zM62.552 40.373h-2.827V43.2h2.827v-2.827zM79.517 40.373h-2.828V43.2h2.828v-2.827zM82.345 40.373h-2.827V43.2h2.827v-2.827zM8.828 43.2H6v2.828h2.828V43.2zM14.483 43.2h-2.828v2.828h2.828V43.2z" fill="#000"/><path d="M17.31 43.2h-2.828v2.828h2.828V43.2zM20.138 43.2H17.31v2.828h2.828V43.2zM28.62 43.2h-2.827v2.828h2.828V43.2z" fill="#000"/><path d="M31.449 43.2H28.62v2.828h2.828V43.2z" fill="#000"/><path d="M34.276 43.2h-2.828v2.828h2.828V43.2zM39.931 43.2h-2.828v2.828h2.828V43.2zM42.758 43.2h-2.827v2.828h2.827V43.2zM45.586 43.2H42.76v2.828h2.827V43.2zM54.069 43.2H51.24v2.828h2.828V43.2zM59.724 43.2h-2.827v2.828h2.827V43.2zM62.552 43.2h-2.827v2.828h2.827V43.2z" fill="#000"/><path d="M65.38 43.2h-2.828v2.828h2.827V43.2z" fill="#000"/><path d="M68.207 43.2h-2.828v2.828h2.828V43.2zM71.035 43.2h-2.828v2.828h2.828V43.2zM76.69 43.2h-2.828v2.828h2.828V43.2zM88 43.2h-2.827v2.828H88V43.2zM8.828 46.028H6v2.827h2.828v-2.827zM17.31 46.028h-2.828v2.827h2.828v-2.827zM20.138 46.028H17.31v2.827h2.828v-2.827zM25.793 46.028h-2.827v2.827h2.827v-2.827zM28.62 46.028h-2.827v2.827h2.828v-2.827zM34.276 46.028h-2.828v2.827h2.828v-2.827zM42.758 46.028h-2.827v2.827h2.827v-2.827zM45.586 46.028H42.76v2.827h2.827v-2.827z" fill="#000"/><path d="M48.413 46.028h-2.827v2.827h2.828v-2.827z" fill="#000"/><path d="M51.242 46.028h-2.828v2.827h2.828v-2.827z" fill="#000"/><path d="M54.069 46.028H51.24v2.827h2.828v-2.827zM59.724 46.028h-2.827v2.827h2.827v-2.827zM65.38 46.028h-2.828v2.827h2.827v-2.827zM73.862 46.028h-2.828v2.827h2.828v-2.827zM79.517 46.028h-2.828v2.827h2.828v-2.827zM82.345 46.028h-2.827v2.827h2.827v-2.827zM11.655 48.855H8.827v2.828h2.828v-2.828zM17.31 48.855h-2.828v2.828h2.828v-2.828zM42.758 48.855h-2.827v2.828h2.827v-2.828zM51.242 48.855h-2.828v2.828h2.828v-2.828zM62.552 48.855h-2.827v2.828h2.827v-2.828z" fill="#000"/><path d="M65.38 48.855h-2.828v2.828h2.827v-2.828zM73.862 48.855h-2.828v2.828h2.828v-2.828zM76.69 48.855h-2.828v2.828h2.828v-2.828zM85.172 48.855h-2.827v2.828h2.827v-2.828zM8.828 51.683H6v2.827h2.828v-2.827z" fill="#000"/><path d="M11.655 51.683H8.827v2.827h2.828v-2.827zM14.483 51.683h-2.828v2.827h2.828v-2.827z" fill="#000"/><path d="M17.31 51.683h-2.828v2.827h2.828v-2.827zM20.138 51.683H17.31v2.827h2.828v-2.827z" fill="#000"/><path d="M22.965 51.683h-2.827v2.827h2.827v-2.827zM25.793 51.683h-2.827v2.827h2.827v-2.827zM31.449 51.683H28.62v2.827h2.828v-2.827z" fill="#000"/><path d="M34.276 51.683h-2.828v2.827h2.828v-2.827zM45.586 51.683H42.76v2.827h2.827v-2.827z" fill="#000"/><path d="M48.413 51.683h-2.827v2.827h2.828v-2.827z" fill="#000"/><path d="M51.242 51.683h-2.828v2.827h2.828v-2.827zM56.897 51.683h-2.828v2.827h2.828v-2.827zM62.552 51.683h-2.827v2.827h2.827v-2.827zM73.862 51.683h-2.828v2.827h2.828v-2.827zM79.517 51.683h-2.828v2.827h2.828v-2.827zM82.345 51.683h-2.827v2.827h2.827v-2.827zM8.828 54.51H6v2.828h2.828V54.51zM20.138 54.51H17.31v2.828h2.828V54.51z" fill="#000"/><path d="M22.965 54.51h-2.827v2.828h2.827V54.51zM28.62 54.51h-2.827v2.828h2.828V54.51zM39.931 54.51h-2.828v2.828h2.828V54.51zM45.586 54.51H42.76v2.828h2.827V54.51zM54.069 54.51H51.24v2.828h2.828V54.51z" fill="#000"/><path d="M56.897 54.51h-2.828v2.828h2.828V54.51zM59.724 54.51h-2.827v2.828h2.827V54.51zM62.552 54.51h-2.827v2.828h2.827V54.51z" fill="#000"/><path d="M65.38 54.51h-2.828v2.828h2.827V54.51zM71.035 54.51h-2.828v2.828h2.828V54.51z" fill="#000"/><path d="M73.862 54.51h-2.828v2.828h2.828V54.51zM76.69 54.51h-2.828v2.828h2.828V54.51zM82.345 54.51h-2.827v2.828h2.827V54.51zM88 54.51h-2.827v2.828H88V54.51zM8.828 57.338H6v2.828h2.828v-2.828zM14.483 57.338h-2.828v2.828h2.828v-2.828zM25.793 57.338h-2.827v2.828h2.827v-2.828zM28.62 57.338h-2.827v2.828h2.828v-2.828z" fill="#000"/><path d="M31.449 57.338H28.62v2.828h2.828v-2.828zM37.103 57.338h-2.828v2.828h2.828v-2.828zM42.758 57.338h-2.827v2.828h2.827v-2.828zM48.413 57.338h-2.827v2.828h2.828v-2.828z" fill="#000"/><path d="M51.242 57.338h-2.828v2.828h2.828v-2.828zM56.897 57.338h-2.828v2.828h2.828v-2.828zM65.38 57.338h-2.828v2.828h2.827v-2.828zM73.862 57.338h-2.828v2.828h2.828v-2.828zM82.345 57.338h-2.827v2.828h2.827v-2.828zM8.828 60.166H6v2.827h2.828v-2.828zM17.31 60.166h-2.828v2.827h2.828v-2.828zM20.138 60.166H17.31v2.827h2.828v-2.828z" fill="#000"/><path d="M22.965 60.166h-2.827v2.827h2.827v-2.828zM28.62 60.166h-2.827v2.827h2.828v-2.828zM37.103 60.166h-2.828v2.827h2.828v-2.828zM42.758 60.166h-2.827v2.827h2.827v-2.828zM51.242 60.166h-2.828v2.827h2.828v-2.828zM59.724 60.166h-2.827v2.827h2.827v-2.828zM62.552 60.166h-2.827v2.827h2.827v-2.828zM68.207 60.166h-2.828v2.827h2.828v-2.828zM73.862 60.166h-2.828v2.827h2.828v-2.828zM76.69 60.166h-2.828v2.827h2.828v-2.828zM85.172 60.166h-2.827v2.827h2.827v-2.828zM8.828 62.993H6v2.828h2.828v-2.828zM25.793 62.993h-2.827v2.828h2.827v-2.828zM31.449 62.993H28.62v2.828h2.828v-2.828zM45.586 62.993H42.76v2.828h2.827v-2.828z" fill="#000"/><path d="M48.413 62.993h-2.827v2.828h2.828v-2.828z" fill="#000"/><path d="M51.242 62.993h-2.828v2.828h2.828v-2.828z" fill="#000"/><path d="M54.069 62.993H51.24v2.828h2.828v-2.828z" fill="#000"/><path d="M56.897 62.993h-2.828v2.828h2.828v-2.828zM82.345 62.993h-2.827v2.828h2.827v-2.828zM85.172 62.993h-2.827v2.828h2.827v-2.828zM88 62.993h-2.827v2.828H88v-2.828zM31.449 65.82H28.62v2.828h2.828v-2.827zM37.103 65.82h-2.828v2.828h2.828v-2.827z" fill="#000"/><path d="M39.931 65.82h-2.828v2.828h2.828v-2.827zM45.586 65.82H42.76v2.828h2.827v-2.827zM54.069 65.82H51.24v2.828h2.828v-2.827zM59.724 65.82h-2.827v2.828h2.827v-2.827zM79.517 65.82h-2.828v2.828h2.828v-2.827zM82.345 65.82h-2.827v2.828h2.827v-2.827zM85.172 65.82h-2.827v2.828h2.827v-2.827zM88 65.82h-2.827v2.828H88v-2.827zM31.449 68.648H28.62v2.828h2.828v-2.828zM45.586 68.648H42.76v2.828h2.827v-2.828z" fill="#000"/><path d="M48.413 68.648h-2.827v2.828h2.828v-2.828z" fill="#000"/><path d="M51.242 68.648h-2.828v2.828h2.828v-2.828z" fill="#000"/><path d="M54.069 68.648H51.24v2.828h2.828v-2.828zM62.552 68.648h-2.827v2.828h2.827v-2.828zM79.517 68.648h-2.828v2.828h2.828v-2.828zM82.345 68.648h-2.827v2.828h2.827v-2.828zM34.276 71.476h-2.828v2.827h2.828v-2.827zM42.758 71.476h-2.827v2.827h2.827v-2.827zM48.413 71.476h-2.827v2.827h2.828v-2.827zM54.069 71.476H51.24v2.827h2.828v-2.827zM59.724 71.476h-2.827v2.827h2.827v-2.827zM62.552 71.476h-2.827v2.827h2.827v-2.827zM85.172 71.476h-2.827v2.827h2.827v-2.827zM31.449 74.304H28.62v2.827h2.828v-2.827z" fill="#000"/><path d="M34.276 74.304h-2.828v2.827h2.828v-2.827z" fill="#000"/><path d="M37.103 74.304h-2.828v2.827h2.828v-2.827zM42.758 74.304h-2.827v2.827h2.827v-2.827zM45.586 74.304H42.76v2.827h2.827v-2.827z" fill="#000"/><path d="M48.413 74.304h-2.827v2.827h2.828v-2.827z" fill="#000"/><path d="M51.242 74.304h-2.828v2.827h2.828v-2.827zM56.897 74.304h-2.828v2.827h2.828v-2.827zM82.345 74.304h-2.827v2.827h2.827v-2.827zM85.172 74.304h-2.827v2.827h2.827v-2.827zM31.449 77.131H28.62v2.828h2.828V77.13zM39.931 77.131h-2.828v2.828h2.828V77.13z" fill="#000"/><path d="M54.069 77.131H51.24v2.828h2.828V77.13z" fill="#000"/><path d="M56.897 77.131h-2.828v2.828h2.828V77.13zM59.724 77.131h-2.827v2.828h2.827V77.13zM65.38 77.131h-2.828v2.828h2.827V77.13zM73.862 77.131h-2.828v2.828h2.828V77.13zM79.517 77.131h-2.828v2.828h2.828V77.13zM82.345 77.131h-2.827v2.828h2.827V77.13zM88 77.131h-2.827v2.828H88V77.13zM31.449 79.959H28.62v2.827h2.828V79.96zM42.758 79.959h-2.827v2.827h2.827V79.96zM51.242 79.959h-2.828v2.827h2.828V79.96zM59.724 79.959h-2.827v2.827h2.827V79.96zM62.552 79.959h-2.827v2.827h2.827V79.96z" fill="#000"/><path d="M65.38 79.959h-2.828v2.827h2.827V79.96zM71.035 79.959h-2.828v2.827h2.828V79.96z" fill="#000"/><path d="M73.862 79.959h-2.828v2.827h2.828V79.96zM76.69 79.959h-2.828v2.827h2.828V79.96z" fill="#000"/><path d="M79.517 79.959h-2.828v2.827h2.828V79.96zM82.345 79.959h-2.827v2.827h2.827V79.96zM85.172 79.959h-2.827v2.827h2.827V79.96zM31.449 82.786H28.62v2.828h2.828v-2.828z" fill="#000"/><path d="M34.276 82.786h-2.828v2.828h2.828v-2.828z" fill="#000"/><path d="M37.103 82.786h-2.828v2.828h2.828v-2.828zM48.413 82.786h-2.827v2.828h2.828v-2.828zM54.069 82.786H51.24v2.828h2.828v-2.828zM65.38 82.786h-2.828v2.828h2.827v-2.828z" fill="#000"/><path d="M68.207 82.786h-2.828v2.828h2.828v-2.828zM71.035 82.786h-2.828v2.828h2.828v-2.828z" fill="#000"/><path d="M73.862 82.786h-2.828v2.828h2.828v-2.828zM79.517 82.786h-2.828v2.828h2.828v-2.828zM85.172 82.786h-2.827v2.828h2.827v-2.828zM31.449 85.614H28.62v2.827h2.828v-2.827z" fill="#000"/><path d="M34.276 85.614h-2.828v2.827h2.828v-2.827zM42.758 85.614h-2.827v2.827h2.827v-2.827zM45.586 85.614H42.76v2.827h2.827v-2.827z" fill="#000"/><path d="M48.413 85.614h-2.827v2.827h2.828v-2.827zM56.897 85.614h-2.828v2.827h2.828v-2.827zM68.207 85.614h-2.828v2.827h2.828v-2.827zM71.035 85.614h-2.828v2.827h2.828v-2.827z" fill="#000"/><path d="M73.862 85.614h-2.828v2.827h2.828v-2.827zM76.69 85.614h-2.828v2.827h2.828v-2.827z" fill="#000"/><path d="M79.517 85.614h-2.828v2.827h2.828v-2.827zM82.345 85.614h-2.827v2.827h2.827v-2.827z" fill="#000"/></g><defs><clipPath id="a"><path fill="#fff" transform="translate(0 .441)" d="M0 0h94v94H0z"/></clipPath></defs></svg>